<svg width="20" height="20" viewBox="0 0 20 20" fill="none" xmlns="http://www.w3.org/2000/svg">
<path d="M10.0044 17.5003C9.8947 17.5009 9.78598 17.4799 9.68445 17.4384C9.58292 17.3969 9.49057 17.3358 9.4127 17.2586L2.9377 10.7753C2.1255 9.95457 1.66992 8.84656 1.66992 7.69192C1.66992 6.53728 2.1255 5.42928 2.9377 4.60859C3.75625 3.79235 4.86506 3.33398 6.02104 3.33398C7.17701 3.33398 8.28582 3.79235 9.10437 4.60859L10.0044 5.50859L10.9044 4.60859C11.7229 3.79235 12.8317 3.33398 13.9877 3.33398C15.1437 3.33398 16.2525 3.79235 17.071 4.60859C17.8832 5.42928 18.3388 6.53728 18.3388 7.69192C18.3388 8.84656 17.8832 9.95457 17.071 10.7753L10.596 17.2586C10.5182 17.3358 10.4258 17.3969 10.3243 17.4384C10.2228 17.4799 10.114 17.5009 10.0044 17.5003ZM6.02104 5.00026C5.66827 4.99866 5.31869 5.06708 4.99254 5.20154C4.6664 5.336 4.37018 5.53384 4.12104 5.78359C3.61775 6.28953 3.33523 6.97413 3.33523 7.68776C3.33523 8.40139 3.61775 9.08599 4.12104 9.59192L10.0044 15.4836L15.8877 9.59192C16.391 9.08599 16.6735 8.40139 16.6735 7.68776C16.6735 6.97413 16.391 6.28953 15.8877 5.78359C15.3741 5.29835 14.6943 5.02801 13.9877 5.02801C13.2811 5.02801 12.6013 5.29835 12.0877 5.78359L10.596 7.28359C10.5186 7.3617 10.4264 7.42369 10.3249 7.466C10.2233 7.50831 10.1144 7.53009 10.0044 7.53009C9.89436 7.53009 9.78544 7.50831 9.68389 7.466C9.58234 7.42369 9.49017 7.3617 9.4127 7.28359L7.92104 5.78359C7.67189 5.53384 7.37567 5.336 7.04953 5.20154C6.72339 5.06708 6.37381 4.99866 6.02104 5.00026Z" fill="#3F3A36"/>
</svg>
