<svg width="20" height="20" viewBox="0 0 20 20" fill="none" xmlns="http://www.w3.org/2000/svg">
<path d="M10.0013 9.16862C10.6606 9.16862 11.305 8.97312 11.8532 8.60685C12.4014 8.24058 12.8286 7.71999 13.0809 7.1109C13.3332 6.50181 13.3992 5.83159 13.2706 5.18499C13.142 4.53838 12.8245 3.94444 12.3583 3.47827C11.8921 3.01209 11.2982 2.69462 10.6516 2.566C10.005 2.43739 9.33478 2.5034 8.72569 2.75569C8.1166 3.00798 7.59601 3.43522 7.22974 3.98339C6.86347 4.53155 6.66797 5.17602 6.66797 5.83529C6.66797 6.71934 7.01916 7.56719 7.64428 8.19231C8.2694 8.81743 9.11725 9.16862 10.0013 9.16862ZM10.0013 4.16862C10.3309 4.16862 10.6532 4.26637 10.9273 4.44951C11.2013 4.63264 11.415 4.89294 11.5411 5.19748C11.6672 5.50203 11.7003 5.83714 11.6359 6.16044C11.5716 6.48374 11.4129 6.78071 11.1798 7.0138C10.9467 7.24689 10.6498 7.40562 10.3265 7.46993C10.0032 7.53424 9.66804 7.50123 9.3635 7.37509C9.05895 7.24894 8.79866 7.03532 8.61552 6.76124C8.43238 6.48716 8.33464 6.16492 8.33464 5.83529C8.33464 5.39326 8.51023 4.96934 8.82279 4.65678C9.13535 4.34422 9.55927 4.16862 10.0013 4.16862Z" fill="#3F3A36"/>
<path d="M10.0013 10.834C8.45421 10.834 6.97047 11.4486 5.87651 12.5425C4.78255 13.6365 4.16797 15.1202 4.16797 16.6673C4.16797 16.8883 4.25577 17.1003 4.41205 17.2566C4.56833 17.4129 4.78029 17.5007 5.0013 17.5007C5.22232 17.5007 5.43428 17.4129 5.59056 17.2566C5.74684 17.1003 5.83464 16.8883 5.83464 16.6673C5.83464 15.5622 6.27362 14.5024 7.05502 13.721C7.83643 12.9396 8.89623 12.5007 10.0013 12.5007C11.1064 12.5007 12.1662 12.9396 12.9476 13.721C13.729 14.5024 14.168 15.5622 14.168 16.6673C14.168 16.8883 14.2558 17.1003 14.412 17.2566C14.5683 17.4129 14.7803 17.5007 15.0013 17.5007C15.2223 17.5007 15.4343 17.4129 15.5906 17.2566C15.7468 17.1003 15.8346 16.8883 15.8346 16.6673C15.8346 15.1202 15.2201 13.6365 14.1261 12.5425C13.0321 11.4486 11.5484 10.834 10.0013 10.834Z" fill="#3F3A36"/>
</svg>
