<svg width="22" height="19" viewBox="0 0 22 19" fill="none" xmlns="http://www.w3.org/2000/svg">
<path d="M19.1785 1.64344C18.6572 1.12215 18.0383 0.708702 17.3572 0.426713C16.676 0.144723 15.946 -0.000276434 15.2088 3.95639e-07C14.4715 0.000277225 13.7416 0.145825 13.0607 0.428326C12.3797 0.710827 11.7612 1.12474 11.2403 1.64642L10.5603 2.33465L9.88602 1.64791L9.88164 1.64353C9.3606 1.12249 8.74204 0.709174 8.06127 0.427188C7.3805 0.145203 6.65085 6.67832e-05 5.91399 6.67832e-05C5.17713 6.67832e-05 4.44749 0.145203 3.76672 0.427188C3.08595 0.709174 2.46739 1.12249 1.94635 1.64353L1.64344 1.94644C0.591162 2.99872 0 4.42591 0 5.91406C0 7.4022 0.591162 8.8294 1.64344 9.88168L9.63804 17.8762L10.5408 18.8221L10.5624 18.8005L10.5857 18.8239L11.4316 17.9314L19.4814 9.88155C20.5321 8.82843 21.1222 7.40155 21.1222 5.91393C21.1222 4.4263 20.5321 2.99942 19.4814 1.94631L19.1785 1.64344ZM18.4893 8.88966L10.5624 16.8167L2.63528 8.88966C1.84608 8.10045 1.40271 7.03006 1.40271 5.91395C1.40271 4.79784 1.84608 3.72745 2.63528 2.93824L2.93824 2.63533C3.72706 1.84651 4.79681 1.40317 5.91237 1.40275C7.02793 1.40234 8.09801 1.84487 8.88742 2.63309L10.5573 4.33338L12.2351 2.63533C12.6259 2.24455 13.0898 1.93456 13.6004 1.72307C14.1109 1.51159 14.6582 1.40273 15.2108 1.40273C15.7635 1.40273 16.3107 1.51159 16.8213 1.72307C17.3319 1.93456 17.7958 2.24455 18.1866 2.63533L18.4895 2.93819C19.2775 3.72805 19.72 4.79824 19.72 5.91396C19.7199 7.02969 19.2773 8.09985 18.4893 8.88966Z" fill="#B4B3B2"/>
</svg>
