<svg width="68" height="67" viewBox="0 0 68 67" fill="none" xmlns="http://www.w3.org/2000/svg">
<path d="M50.4623 23.9247L64.8549 15.439M3.14062 51.5638L17.357 43.3206M3.14062 51.5638L16.1447 64.5238M3.14062 51.5638V15.2406M43.3431 50.2855L51.7406 64.5238M51.7406 64.5238L64.7227 51.5859M51.7406 64.5238H16.1447M15.4614 2.9859L24.0133 17.1581M24.0133 17.1581L17.401 23.8145V43.3206L24.388 50.2855H43.4974L50.4623 43.3206M24.0133 17.1581H43.6957L50.4623 23.9026V43.3206M24.3439 50.2855L16.1447 64.5238M52.1153 2.80957L43.6516 17.1361M52.1153 2.80957L64.7227 15.3949L64.7227 51.5859M52.1153 2.80957H15.4614L3.14062 15.2406M50.4623 43.3206L64.7227 51.5859M3.14062 15.2406L17.5774 23.9467M46.3627 12.5957L55.0027 21.1916V45.9434L46.1202 54.8038H21.7651L12.8606 45.9434V21.0814L21.3023 12.5957H46.3627ZM49.1178 7.96712L59.6533 18.4806V48.6985L48.8092 59.5206H19.0761L8.21001 48.6765V18.3263L18.5031 7.96712H49.1178Z" stroke="#151542"/>
</svg>
