<svg width="68" height="67" viewBox="0 0 68 67" fill="none" xmlns="http://www.w3.org/2000/svg">
<path d="M19.5594 12.1162L19.6912 22.6329M19.5594 12.1162L34.3501 18.8927M19.5594 12.1162L34.1083 2.91958L49.6023 13.4363M19.5594 12.1162L17.2078 5.58176M19.5594 12.1162L9.75748 10.6641L12.0651 20.7188M19.6912 22.6329L16.7682 33.1057M19.6912 22.6329L34.3501 18.8927M19.6912 22.6329L12.0651 20.7188M16.7682 33.1057L19.4495 44.3044M16.7682 33.1057L12.0651 20.7188M16.7682 33.1057L10.9662 44.7445M19.4495 44.3044L10.9662 44.7445M19.4495 44.3044L18.1089 53.7871M19.4495 44.3044L33.493 48.4407M10.9662 44.7445L5.60377 47.6487M10.9662 44.7445L3.27417 33.1057L12.0651 20.7188M10.9662 44.7445L9.75748 56.7133L18.1089 53.7871M49.009 54.9532L51.7122 61.5316M49.009 54.9532L33.8666 64.5238L18.1089 53.7871M49.009 54.9532L33.493 48.4407M49.009 54.9532L48.042 44.4584M49.009 54.9532L58.4592 56.7133M18.1089 53.7871L33.493 48.4407M18.1089 53.7871L15.3837 61.1136M33.493 48.4407L48.042 44.4584M58.7449 56.3393L56.0197 46.3506M56.0197 46.3506L48.042 44.4584M56.0197 46.3506L62.3052 49.8488M56.0197 46.3506L64.8107 33.1057L56.8768 22.3249M56.0197 46.3506L50.943 33.1057M56.8768 22.3249L50.943 33.1057M56.8768 22.3249L48.3936 23.051M56.8768 22.3249L58.1955 10.3561L49.6023 13.4363M56.8768 22.3249L62.7668 19.3327M50.943 33.1057L48.042 44.4584M50.943 33.1057L48.3936 23.051M48.3936 23.051L49.6023 13.4363M48.3936 23.051L34.3501 18.8927M49.6023 13.4363L34.3501 18.8927M49.6023 13.4363L52.6572 6.0878M12.0651 20.7188L6.28506 17.6826M34.0864 2.80957C30.7019 2.80957 16.1749 2.80957 9.7355 10.5541C3.29615 18.2986 3.14231 33.0177 3.14231 33.0177C3.14231 33.0177 2.8566 48.4187 9.7355 56.6253C16.6144 64.8319 30.3502 64.4138 33.8666 64.4138C37.383 64.4138 51.91 64.4138 58.4592 56.6033C65.0084 48.7928 64.8546 42.6103 64.8546 33.1057C64.8546 23.601 64.437 17.7046 58.2614 10.3561C52.0858 3.00758 39.5587 2.80957 34.0864 2.80957Z" stroke="#151542"/>
</svg>
