<svg width="68" height="67" viewBox="0 0 68 67" fill="none" xmlns="http://www.w3.org/2000/svg">
<path d="M57.732 10.8548L48.4115 17.4237M51.4532 2.80957L45.9737 14.4017M51.4532 2.80957H16.5647M51.4532 2.80957L57.7342 10.8548V56.4786L51.4532 64.5238M45.9737 14.4017L48.4115 17.4215V25.5744M45.9737 14.4017H22.0442M54.6267 25.5766V13.1252L49.6194 6.77608H18.3985L13.3693 13.1252V25.5766M10.2639 10.8548L19.6064 17.4237M19.6064 17.4237L22.0442 14.4017M19.6064 17.4237V25.5766M16.5647 2.80957L22.0442 14.4017M16.5647 2.80957L10.2617 10.8548V56.4786L16.5647 64.5238M16.5669 25.5766V15.3508L20.3378 10.8548H47.6802L51.4532 15.3508V51.9827L47.6802 56.4786H20.3378L16.5647 51.9827V25.5766M57.732 56.4786L48.4115 49.8895M48.4115 49.8895L45.9737 52.9317M48.4115 49.8895V25.5789M51.4532 64.5238L45.9737 52.9317M51.4532 64.5238H16.5647M45.9737 52.9317H22.0442M54.6267 25.5789V54.1858L49.6194 60.5349H18.3985L13.3693 54.1858V25.5789M10.2639 56.4786L19.6064 49.8895M19.6064 49.8895L22.0442 52.9317M19.6064 49.8895V25.5789M16.5647 64.5238L22.0442 52.9317" stroke="#151542"/>
</svg>
