<svg width="68" height="67" viewBox="0 0 68 67" fill="none" xmlns="http://www.w3.org/2000/svg">
<path d="M33.9663 12.6934V21.1511M27.8765 49.0569L33.7898 47.7574M27.8765 49.0569L15.7191 49.1889L16.5796 38.5728L17.065 30.9741L10.3354 26.3929M27.8765 49.0569L23.4196 55.4881M33.7898 47.7574H34.1428M33.7898 47.7574L25.3392 42.5594L17.6167 31.5688L14.1525 21.6355L34.0106 16.3054L22.6032 6.52623L14.1083 15.2483M34.1428 47.7574L40.0561 49.0569M34.1428 47.7574L43.1232 42.7355L50.3162 31.5688L53.7803 21.6355L33.9223 16.3054L45.3296 6.52623L53.8464 15.2483M40.0561 49.0569L51.7502 49.6296L51.3531 38.5729L50.8677 30.9743L57.5973 26.393M40.0561 49.0569L43.8512 55.9288M51.3972 39.7623L57.3767 43.3524M57.5973 26.393L54.1332 21.6356L53.8464 15.2483M57.5973 26.393L63.996 28.9039M57.5973 26.393L61.3264 35.7536L43.1232 43.088L39.7032 48.7044L34.0547 60.8182H33.8782L28.2297 48.7044L25.1627 42.207L6.62856 35.7536L10.3354 26.3929M57.5973 26.393L63.4666 16.5477L53.8464 15.2483M53.8464 15.2483L56.9133 7.75977M53.8464 15.2483L43.5864 18.9045L34.0546 21.2171H33.878L24.3462 18.9045L14.1083 15.2483M14.1083 15.2483L11.0193 7.75977M14.1083 15.2483L4.46624 16.5477L10.3354 26.3929M14.1083 15.2483L13.7995 21.6355L10.3354 26.3929M10.3354 26.3929L3.93666 28.9038M16.3369 39.4098L10.8429 43.7267M33.9666 61.4128C33.9666 61.4128 64.8569 48.7704 64.8569 21.6354C64.8569 14.6975 59.3407 5.77734 50.1619 5.77734C38.5119 5.77734 33.9666 12.6272 33.9666 12.6272C33.9666 12.6272 29.5537 5.77734 17.8375 5.77734C8.68076 5.77734 3.14258 14.6975 3.14258 21.6354C3.14258 48.7704 34.0328 61.4128 34.0328 61.4128H33.9666Z" stroke="#151542" stroke-linejoin="round"/>
</svg>
