<svg width="68" height="67" viewBox="0 0 68 67" fill="none" xmlns="http://www.w3.org/2000/svg">
<path d="M42.2151 8.8713L38.6801 11.5185M38.6801 11.5185L39.2604 19.7833L46.8071 25.688L43.1882 33.3156L46.529 41.448M38.6801 11.5185L33.9977 13.5443M38.6801 11.5185L34.1742 3.25152H33.8211L29.3197 11.5163L20.3387 16.3217L21.1861 25.6902M38.6801 11.5185L47.6566 16.3217L46.8115 25.688L52.4913 33.3156L46.529 41.448M38.572 55.6421L39.5473 46.7133M38.572 55.6421L33.9977 53.9035M38.572 55.6421L42.4556 58.2894M39.5473 46.7133L46.529 41.448M39.5473 46.7133L43.1926 33.3156L39.2649 19.7811L33.9977 13.5443M39.5473 46.7133L33.9977 53.9035M46.529 41.448L47.8309 50.904L38.5742 55.6421L34.1764 64.0841H33.8233L29.4234 55.6421M33.9977 13.5443L29.3152 11.523L28.7327 19.7878L21.1861 25.6902M33.9977 13.5443L28.7305 19.7811L24.8248 33.3156L28.448 46.7133M33.9977 53.9035L28.448 46.7133M33.9977 53.9035L29.4234 55.6421M21.1861 25.6902L15.5063 33.3179L21.4862 41.448L20.1666 50.904L29.4234 55.6421M21.1861 25.6902L24.827 33.3201L21.4862 41.4525L28.448 46.7133M29.4234 55.6421L28.448 46.7133M29.4234 55.6421L25.5397 58.2894M25.8023 8.8713L29.3152 11.5185M34.1742 64.5238C39.8388 61.596 44.5952 57.1305 47.916 51.6223C51.2368 46.1141 52.9923 39.7784 52.9878 33.3179C52.9878 12.1983 34.1742 2.80957 34.1742 2.80957H33.8211C33.8211 2.80957 15.0098 12.1983 15.0098 33.3156C15.0055 39.7764 16.7613 46.1122 20.0825 51.6204C23.4037 57.1287 28.1606 61.5941 33.8256 64.5216L34.1742 64.5238Z" stroke="#151542"/>
</svg>
