<svg width="68" height="67" viewBox="0 0 68 67" fill="none" xmlns="http://www.w3.org/2000/svg">
<path d="M52.1418 44.0277L47.4615 39.8593M40.2441 55.0029L41.9399 46.4955L47.4637 39.8615M40.2441 55.0029L34.0671 52.2726L41.9422 46.4978L43.855 33.7592L47.4637 39.8615M40.2441 55.0029L43.5052 60.9998M40.2441 55.0029L34.0671 64.5243M40.2441 55.0029L49.0954 53.769L47.4637 39.8615M47.4637 39.8615L52.9698 34.2617V33.9319L47.4659 27.4706L49.8172 15.9233L40.2441 12.3539M40.2441 12.3539L34.0671 2.81006M40.2441 12.3539L40.8308 22.2253L47.4637 27.4751L43.855 33.9319L40.833 22.2253L34.0671 16.6525L40.2441 12.3539ZM40.2441 12.3539L44.3332 7.35091M52.3366 25.3573L47.4659 27.4729M15.687 43.0136L20.6462 39.8615M20.6462 39.8615L26.584 46.343M20.6462 39.8615L24.2549 33.7569L26.584 46.343M20.6462 39.8615L18.7311 53.2844L27.8681 55.0029M20.6462 39.8615L15.1423 34.264V33.9342L20.6462 27.4729L18.2994 15.6407L27.8615 12.3539L34.045 2.81006M27.8681 55.0029L26.584 46.343M27.8681 55.0029L34.045 52.2703L26.584 46.343M27.8681 55.0029L24.193 60.7552M27.8681 55.0029L34.045 64.5243M15.7512 24.7156L20.644 27.4751M20.644 27.4751L27.2792 22.2253M20.644 27.4751L24.2549 33.9319L27.2792 22.2253M27.8681 12.3539L27.2792 22.2253M27.8681 12.3539L34.045 16.6525L27.2792 22.2253M27.8681 12.3539L23.7546 7.26117M15.0117 34.1069C15.0117 14.7993 23.5177 2.81006 34.0007 2.81006C44.4838 2.81006 52.9897 14.7769 52.9897 34.0845C52.9897 53.3943 44.4838 64.5243 34.0007 64.5243C23.5177 64.5243 15.0117 53.5042 15.0117 34.1069Z" stroke="#151542"/>
</svg>
