<svg width="68" height="67" viewBox="0 0 68 67" fill="none" xmlns="http://www.w3.org/2000/svg">
<path d="M27.1251 12.3541L15.0333 10.6156L17.7516 22.3789M27.1251 12.3541L25.8529 19.7576M27.1251 12.3541L33.865 3.00997M17.7516 22.3789L22.9628 29.3646L17.9703 36.0223M17.7516 22.3789L10.438 28.3965L17.9703 36.0223M17.7516 22.3789L25.8529 19.7576M17.9703 36.0223L16.9883 47.725L28.0222 50.7439L34.0436 47.2623L25.9199 41.685M17.9703 36.0223L25.9199 41.685M17.9703 36.0223L12.6497 39.2411M25.9199 41.685L28.0222 50.7462M25.9199 41.685L22.9628 29.3691L25.8529 19.7576M25.8529 19.7576L33.8695 15.9234M17.7516 22.3812L10.7215 19.5173M28.0222 50.7462L24.496 57.0288M28.0222 50.7462L34.0436 64.102M33.8695 15.9234L27.1228 12.3519L23.3757 5.19327M33.8695 15.9234L41.9039 19.7599L45.0798 28.7739M33.8695 15.9234L40.6318 12.3542L44.225 5.14835M40.634 12.3542L52.6567 10.6785L50.0075 22.3812M50.0075 22.3812L45.0798 28.7739M50.0075 22.3812L57.1894 20.3551M45.0798 28.7739L49.9406 36.0246M45.0798 28.7739L42.3458 41.6872L39.8909 50.7462M49.9406 36.0246L50.7954 47.9249L39.8909 50.7462M49.9406 36.0246L55.3504 38.9985M39.8909 50.7462L33.8695 47.2645L42.3436 41.6872L49.9384 36.0268L57.4505 28.3987L50.0031 22.3789L41.9017 19.7599L40.6296 12.3564L33.8673 2.81006M39.8909 50.7462L42.8033 57.6195M39.8909 50.7462L33.8695 64.102M33.9543 64.5243C33.9543 64.5243 57.7362 51.0561 57.7362 24.4746C57.7362 3.585 35.4898 2.81006 33.9543 2.81006C32.4255 2.81006 10.2639 2.96729 10.2639 24.4746C10.1724 51.0763 33.9543 64.5243 33.9543 64.5243Z" stroke="#151542"/>
</svg>
