<svg width="68" height="67" viewBox="0 0 68 67" fill="none" xmlns="http://www.w3.org/2000/svg">
<path d="M10.5016 18.3256V17.8256H10.0016V18.3256H10.5016ZM18.7419 18.3256V18.8256H19.2419V18.3256H18.7419ZM18.7419 9.88558V9.38558H18.2419V9.88558H18.7419ZM48.9844 9.88558H49.4844V9.38558H48.9844V9.88558ZM48.9844 18.7025H48.4844V19.2025H48.9844V18.7025ZM57.7789 18.7025H58.2789V18.2025H57.7789V18.7025ZM57.7789 48.7206V49.2206H58.2789V48.7206H57.7789ZM3.14062 2.80957V2.30957H2.64062V2.80957H3.14062ZM64.8549 2.80957H65.3549V2.30957H64.8549V2.80957ZM64.8549 64.5238V65.0238H65.3549V64.5238H64.8549ZM3.14062 64.5238H2.64062V65.0238H3.14062V64.5238ZM48.8094 9.79584L48.9449 10.2771C48.9668 10.271 48.9882 10.2633 49.009 10.2543L48.8094 9.79584ZM18.8362 18.2381L18.7006 17.7569C18.5317 17.8044 18.4002 17.937 18.3539 18.1063L18.8362 18.2381ZM3.64766 64.5238L3.18894 64.3249C3.10481 64.5189 3.1518 64.7448 3.3063 64.8892C3.46081 65.0335 3.68942 65.0651 3.87725 64.968L3.64766 64.5238ZM57.3167 18.965L56.8636 18.7536C56.8519 18.7788 56.8423 18.8048 56.8349 18.8316L57.3167 18.965ZM3.38292 3.33455L3.57576 2.87323C3.38445 2.79326 3.16364 2.83967 3.0207 2.98988C2.87777 3.1401 2.84238 3.36295 2.93175 3.55005L3.38292 3.33455ZM18.5714 9.68366L18.3786 10.145C18.3953 10.1519 18.4123 10.158 18.4296 10.1631L18.5714 9.68366ZM48.9844 18.6801L49.4655 18.5439C49.4187 18.3789 49.2907 18.2493 49.1262 18.2006L48.9844 18.6801ZM57.5164 48.8103L57.0353 48.9466C57.0426 48.9724 57.052 48.9976 57.0634 49.0219L57.5164 48.8103ZM10.5016 18.2381L10.9849 18.1102C10.9769 18.0801 10.9662 18.0508 10.9527 18.0226L10.5016 18.2381ZM11.0016 48.7206V18.3256H10.0016V48.7206H11.0016ZM10.5016 18.8256H18.7419V17.8256H10.5016V18.8256ZM19.2419 18.3256V9.88558H18.2419V18.3256H19.2419ZM18.7419 10.3856H48.9844V9.38558H18.7419V10.3856ZM48.4844 9.88558V18.7025H49.4844V9.88558H48.4844ZM48.9844 19.2025H57.7789V18.2025H48.9844V19.2025ZM57.2789 18.7025V48.7206H58.2789V18.7025H57.2789ZM57.7789 48.2206H49.0741V49.2206H57.7789V48.2206ZM48.5741 48.7206V56.8107H49.5741V48.7206H48.5741ZM49.0741 56.3107H18.5692V57.3107H49.0741V56.3107ZM19.0692 56.8107V48.7206H18.0692V56.8107H19.0692ZM18.5692 48.2206H10.5016V49.2206H18.5692V48.2206ZM3.14062 3.30957H64.8549V2.30957H3.14062V3.30957ZM64.3549 2.80957V64.5238H65.3549V2.80957H64.3549ZM64.8549 64.0238H3.14062V65.0238H64.8549V64.0238ZM3.64062 64.5238V2.80957H2.64062V64.5238H3.64062ZM64.6553 2.35114L48.6098 9.33741L49.009 10.2543L65.0545 3.268L64.6553 2.35114ZM48.6738 9.31456L18.7006 17.7569L18.9717 18.7194L48.9449 10.2771L48.6738 9.31456ZM18.3539 18.1063L10.0193 48.5887L10.9839 48.8525L19.3185 18.37L18.3539 18.1063ZM10.0428 48.5217L3.18894 64.3249L4.10637 64.7228L10.9603 48.9196L10.0428 48.5217ZM3.87725 64.968L18.7988 57.2548L18.3396 56.3665L3.41806 64.0797L3.87725 64.968ZM18.6974 57.294L49.2023 49.2039L48.9459 48.2373L18.441 56.3274L18.6974 57.294ZM49.556 48.8541L57.7986 19.0985L56.8349 18.8316L48.5923 48.5871L49.556 48.8541ZM57.7698 19.1765L65.308 3.02099L64.4018 2.59815L56.8636 18.7536L57.7698 19.1765ZM3.19008 3.79587L18.3786 10.145L18.7643 9.22235L3.57576 2.87323L3.19008 3.79587ZM18.4296 10.1631L48.8425 19.1596L49.1262 18.2006L18.7133 9.2042L18.4296 10.1631ZM48.5033 18.8163L57.0353 48.9466L57.9975 48.6741L49.4655 18.5439L48.5033 18.8163ZM57.0634 49.0219L64.4019 64.7354L65.3079 64.3123L57.9694 48.5988L57.0634 49.0219ZM65.0745 64.0746L49.2937 56.3615L48.8545 57.2599L64.6354 64.9731L65.0745 64.0746ZM49.2023 56.3274L18.6974 48.2373L18.441 49.2039L48.9459 57.294L49.2023 56.3274ZM19.0526 48.5927L10.9849 18.1102L10.0182 18.3661L18.0858 48.8485L19.0526 48.5927ZM10.9527 18.0226L3.8341 3.11905L2.93175 3.55005L10.0504 18.4536L10.9527 18.0226Z" fill="#151542"/>
</svg>
