<svg width="68" height="67" viewBox="0 0 68 67" fill="none" xmlns="http://www.w3.org/2000/svg">
<path d="M58.2004 51.1216L48.2617 47.8843L51.4564 57.8679M58.2004 51.1216V16.2352M58.2004 51.1216L51.4564 57.8679M51.4564 57.8679L55.0483 64.5243M51.4564 57.8679L33.9997 50.1951L16.5677 57.8679M51.4564 57.8679H16.5677M64.8569 54.7157L58.2004 51.1261L50.7071 33.6672L58.2004 16.2352M64.8569 54.7157V12.6388M64.8569 54.7157L55.0483 64.5243M58.2004 16.2352L64.8569 12.6388M58.2004 16.2352L51.4542 9.48224H16.5677M58.2004 16.2352L48.2617 19.4726L51.4564 9.48897M64.8569 12.6388L55.0483 2.81006M55.0483 64.5243H12.9714M16.5677 57.8679L12.9714 64.5243M16.5677 57.8679L9.81476 51.1216V16.2352L16.5677 9.48224M12.9714 64.5243L3.14258 54.7157M16.5677 9.48224L33.9997 17.1595L51.4587 9.48672L55.0483 2.81006M16.5677 9.48224L12.9691 2.81006M9.81924 51.1216L19.758 47.8843L16.5655 57.8679M3.14258 54.7157L9.81924 51.1261L17.2901 33.6672L9.81924 16.2352M3.14258 54.7157L3.14482 12.6388L12.9714 2.8123L55.0483 2.81006M9.81924 16.2352L3.14258 12.6366M9.81924 16.2352L19.758 19.4726L16.5655 9.48897M33.9997 17.3121L48.062 19.6498L50.2203 33.6672L48.062 47.707L33.9997 50.0448L19.9374 47.707L17.8016 33.6672L19.9374 19.6498L33.9997 17.3121Z" stroke="#151542"/>
</svg>
