<svg width="68" height="67" viewBox="0 0 68 67" fill="none" xmlns="http://www.w3.org/2000/svg">
<path d="M25.839 14.262L33.8214 3.06027L41.936 14.1738M25.839 14.262L12.2337 12.1231L14.5049 25.7064M25.839 14.262L23.1708 22.8177L18.6725 33.8431L14.5931 41.8034M25.839 14.262L33.7993 18.3414L44.8467 22.8618L53.3804 25.5079M25.839 14.262L22.1565 5.5079M41.936 14.1738L55.5193 11.9026L53.3804 25.5079M41.936 14.1738L34.0198 18.3414L23.0165 22.9721L14.5049 25.7064M41.936 14.1738L44.6924 22.7075L49.301 33.6888L53.4686 41.605M41.936 14.1738L45.5524 5.33149M53.3804 25.5079L64.6042 33.5124L53.4686 41.605M53.3804 25.5079L49.301 33.4683L44.8026 44.5157L42.1565 53.0714M53.4686 41.605L55.7619 55.1882L42.1565 53.0714M53.4686 41.605L44.957 44.3613L33.9757 48.9699L26.0595 53.1375M42.1565 53.0714L34.1521 64.2731L26.0595 53.1375M42.1565 53.0714L34.1962 48.9699L23.1488 44.4716L14.5931 41.8034M42.1565 53.0714L45.839 61.8476M26.0595 53.1375L12.4762 55.4308L14.5931 41.8034M26.0595 53.1375L23.3031 44.6259L18.6725 33.6226L14.5049 25.7064M26.0595 53.1375L22.4211 62.024M14.5931 41.8034L3.39132 33.8211L14.5049 25.7064M14.5931 41.8034L5.83895 45.508M14.5049 25.7064L5.7287 22.1342M62.1786 21.8255L53.4024 25.5079M62.333 45.2213L53.4686 41.627M44.8467 44.4054L49.2569 33.5785L44.7365 22.8177L33.9096 18.3855L23.1488 22.9059L18.7166 33.7329L23.2591 44.5157L34.086 48.9258L44.8467 44.4054ZM45.6488 5.10249C61.4244 11.5372 68.9967 29.5422 62.562 45.3177C56.1273 61.0933 38.1223 68.6656 22.3467 62.2309C6.57116 55.7962 -1.00114 37.7913 5.43355 22.0157C11.8682 6.2401 29.8732 -1.33219 45.6488 5.10249Z" stroke="#151542"/>
</svg>
